<mxfile host="app.diagrams.net" modified="2023-11-20T03:03:58.529Z" agent="Mozilla/5.0 (Windows NT 10.0; Win64; x64) AppleWebKit/537.36 (KHTML, like Gecko) Chrome/119.0.0.0 Safari/537.36" etag="KZPZbFm3BTrMsLcoYQla" version="22.1.3" type="github">
  <diagram name="Page-1" id="w5DjRV-winPEHvyuTGA8">
    <mxGraphModel dx="830" dy="444" grid="1" gridSize="10" guides="1" tooltips="1" connect="1" arrows="1" fold="1" page="1" pageScale="1" pageWidth="850" pageHeight="1100" math="0" shadow="0">
      <root>
        <mxCell id="0" />
        <mxCell id="1" parent="0" />
        <mxCell id="Sd95GpDoJ_5zBHSsol-S-1" value="" style="endArrow=classic;startArrow=classic;html=1;rounded=0;" edge="1" parent="1">
          <mxGeometry width="50" height="50" relative="1" as="geometry">
            <mxPoint x="320" y="570" as="sourcePoint" />
            <mxPoint x="520" y="720" as="targetPoint" />
            <Array as="points">
              <mxPoint x="320" y="720" />
            </Array>
          </mxGeometry>
        </mxCell>
        <mxCell id="Sd95GpDoJ_5zBHSsol-S-3" value="Stability" style="text;html=1;align=center;verticalAlign=middle;resizable=0;points=[];autosize=1;strokeColor=none;fillColor=none;" vertex="1" parent="1">
          <mxGeometry x="490" y="720" width="70" height="30" as="geometry" />
        </mxCell>
        <mxCell id="Sd95GpDoJ_5zBHSsol-S-4" value="Calculation Simplicity" style="text;html=1;align=center;verticalAlign=middle;resizable=0;points=[];autosize=1;strokeColor=none;fillColor=none;" vertex="1" parent="1">
          <mxGeometry x="185" y="560" width="140" height="30" as="geometry" />
        </mxCell>
        <mxCell id="Sd95GpDoJ_5zBHSsol-S-6" value="" style="ellipse;whiteSpace=wrap;html=1;aspect=fixed;fillColor=#FF0000;" vertex="1" parent="1">
          <mxGeometry x="450" y="680" width="30" height="30" as="geometry" />
        </mxCell>
        <mxCell id="Sd95GpDoJ_5zBHSsol-S-7" value="" style="ellipse;whiteSpace=wrap;html=1;aspect=fixed;fillColor=#0000ff;" vertex="1" parent="1">
          <mxGeometry x="340" y="600" width="30" height="30" as="geometry" />
        </mxCell>
        <mxCell id="Sd95GpDoJ_5zBHSsol-S-8" value="" style="ellipse;whiteSpace=wrap;html=1;aspect=fixed;fillColor=#00ff00;" vertex="1" parent="1">
          <mxGeometry x="380" y="660" width="30" height="30" as="geometry" />
        </mxCell>
        <mxCell id="Sd95GpDoJ_5zBHSsol-S-9" value="" style="endArrow=none;dashed=1;html=1;rounded=0;exitX=1;exitY=0;exitDx=0;exitDy=0;" edge="1" parent="1" source="Sd95GpDoJ_5zBHSsol-S-7" target="Sd95GpDoJ_5zBHSsol-S-11">
          <mxGeometry width="50" height="50" relative="1" as="geometry">
            <mxPoint x="370" y="600" as="sourcePoint" />
            <mxPoint x="380" y="590" as="targetPoint" />
          </mxGeometry>
        </mxCell>
        <mxCell id="Sd95GpDoJ_5zBHSsol-S-11" value="&lt;font style=&quot;font-size: 12px;&quot;&gt;KL-GAN&lt;/font&gt;" style="text;html=1;align=center;verticalAlign=middle;resizable=0;points=[];autosize=1;strokeColor=none;fillColor=none;" vertex="1" parent="1">
          <mxGeometry x="380" y="580" width="70" height="30" as="geometry" />
        </mxCell>
        <mxCell id="Sd95GpDoJ_5zBHSsol-S-12" value="&lt;font style=&quot;font-size: 12px;&quot;&gt;JS-GAN&lt;/font&gt;" style="text;html=1;align=center;verticalAlign=middle;resizable=0;points=[];autosize=1;strokeColor=none;fillColor=none;" vertex="1" parent="1">
          <mxGeometry x="390" y="620" width="70" height="30" as="geometry" />
        </mxCell>
        <mxCell id="Sd95GpDoJ_5zBHSsol-S-13" value="&lt;font style=&quot;font-size: 12px;&quot;&gt;Wasserstein-GAN&lt;/font&gt;" style="text;html=1;align=center;verticalAlign=middle;resizable=0;points=[];autosize=1;strokeColor=none;fillColor=none;" vertex="1" parent="1">
          <mxGeometry x="450" y="650" width="120" height="30" as="geometry" />
        </mxCell>
        <mxCell id="Sd95GpDoJ_5zBHSsol-S-14" value="" style="endArrow=none;dashed=1;html=1;rounded=0;exitX=1;exitY=0;exitDx=0;exitDy=0;" edge="1" parent="1" source="Sd95GpDoJ_5zBHSsol-S-8" target="Sd95GpDoJ_5zBHSsol-S-12">
          <mxGeometry width="50" height="50" relative="1" as="geometry">
            <mxPoint x="540" y="630" as="sourcePoint" />
            <mxPoint x="590" y="580" as="targetPoint" />
          </mxGeometry>
        </mxCell>
        <mxCell id="Sd95GpDoJ_5zBHSsol-S-16" value="" style="endArrow=none;dashed=1;html=1;rounded=0;exitX=1;exitY=0;exitDx=0;exitDy=0;entryX=0.378;entryY=1;entryDx=0;entryDy=0;entryPerimeter=0;" edge="1" parent="1" source="Sd95GpDoJ_5zBHSsol-S-6" target="Sd95GpDoJ_5zBHSsol-S-13">
          <mxGeometry width="50" height="50" relative="1" as="geometry">
            <mxPoint x="540" y="630" as="sourcePoint" />
            <mxPoint x="590" y="580" as="targetPoint" />
          </mxGeometry>
        </mxCell>
      </root>
    </mxGraphModel>
  </diagram>
</mxfile>
